<?xml version="1.0" encoding="UTF-8"?>
<svg width="315px" height="160px" viewBox="0 0 315 160" version="1.1" xmlns="http://www.w3.org/2000/svg" xmlns:xlink="http://www.w3.org/1999/xlink">
    <!-- Generator: Sketch 59.1 (86144) - https://sketch.com -->
    <title>Artboard</title>
    <desc>Created with Sketch.</desc>
    <g id="Artboard" stroke="none" stroke-width="1" fill="none" fill-rule="evenodd">
        <g id="airbnb" transform="translate(85.000000, 58.000000)" fill="#FF5A5F" fill-rule="nonzero">
            <path d="M76.4115306,11.3286713 C76.4115306,12.9020979 75.0543768,14.2657343 73.48843,14.2657343 C71.8180867,14.2657343 70.5653293,13.006993 70.5653293,11.3286713 C70.5653293,9.65034965 71.8180867,8.39160839 73.48843,8.39160839 C75.1587732,8.4965035 76.4115306,9.75524476 76.4115306,11.3286713 Z M64.3015421,17.3076923 C64.3015421,17.6223776 64.3015421,18.041958 64.3015421,18.041958 C64.3015421,18.041958 62.9443882,16.2587413 59.9168911,16.2587413 C55.0102578,16.2587413 51.1475891,20.034965 51.1475891,25.1748252 C51.1475891,30.3146853 54.9058614,34.0909091 59.9168911,34.0909091 C62.9443882,34.0909091 64.3015421,32.2027972 64.3015421,32.2027972 L64.3015421,32.9370629 C64.3015421,33.2517483 64.6147315,33.5664336 64.9279208,33.5664336 L68.5817967,33.5664336 L68.5817967,16.6783217 C68.5817967,16.6783217 65.2411102,16.6783217 64.9279208,16.6783217 C64.510335,16.6783217 64.3015421,16.993007 64.3015421,17.3076923 Z M64.3015421,28.1118881 C63.570767,29.0559441 62.2136131,30 60.6476663,30 C57.7245656,30 55.5322401,28.2167832 55.5322401,25.1748252 C55.5322401,22.1328671 57.7245656,20.3496503 60.6476663,20.3496503 C62.2136131,20.3496503 63.6751634,21.2937063 64.3015421,22.2377622 L64.3015421,28.1118881 Z M71.2961045,16.6783217 L75.6807555,16.6783217 L75.6807555,33.6713287 L71.2961045,33.6713287 L71.2961045,16.6783217 Z M136.335094,16.1538462 C133.307597,16.1538462 131.950443,17.9370629 131.950443,17.9370629 L131.950443,8.39160839 L127.565792,8.39160839 L127.565792,33.5664336 C127.565792,33.5664336 130.906479,33.5664336 131.219668,33.5664336 C131.532858,33.5664336 131.846047,33.2517483 131.846047,32.9370629 L131.846047,32.2027972 C131.846047,32.2027972 133.203201,34.0909091 136.230698,34.0909091 C141.137331,34.0909091 145,30.3146853 145,25.1748252 C145,20.034965 141.241728,16.1538462 136.335094,16.1538462 Z M135.604319,30 C133.933976,30 132.576822,29.1608392 131.950443,28.1118881 L131.950443,22.027972 C132.681219,21.0839161 134.038372,20.1398601 135.604319,20.1398601 C138.52742,20.1398601 140.719745,21.9230769 140.719745,24.965035 C140.719745,28.006993 138.52742,30 135.604319,30 Z M125.26907,23.6013986 L125.26907,33.6713287 L120.884419,33.6713287 L120.884419,24.020979 C120.884419,21.1888112 119.944851,20.1398601 117.543733,20.1398601 C116.186579,20.1398601 114.829425,20.7692308 113.994254,21.8181818 L113.994254,33.6713287 L109.609603,33.6713287 L109.609603,16.6783217 L113.054686,16.6783217 C113.367875,16.6783217 113.681064,16.993007 113.681064,17.3076923 L113.681064,18.041958 C114.933822,16.7832168 116.604165,16.2587413 118.274508,16.2587413 C120.153644,16.2587413 121.719591,16.7832168 123.076745,17.8321678 C124.747088,19.0909091 125.26907,20.6643357 125.26907,23.6013986 Z M99.1699573,16.1538462 C96.1424602,16.1538462 94.7853063,17.9370629 94.7853063,17.9370629 L94.7853063,8.39160839 L90.4006553,8.39160839 L90.4006553,33.5664336 C90.4006553,33.5664336 93.7413418,33.5664336 94.0545311,33.5664336 C94.3677205,33.5664336 94.6809098,33.2517483 94.6809098,32.9370629 L94.6809098,32.2027972 C94.6809098,32.2027972 96.0380637,34.0909091 99.0655609,34.0909091 C103.972194,34.0909091 107.834863,30.3146853 107.834863,25.1748252 C107.939259,20.034965 104.076591,16.1538462 99.1699573,16.1538462 Z M98.4391821,30 C96.7688389,30 95.411685,29.1608392 94.7853063,28.1118881 L94.7853063,22.027972 C95.5160815,21.0839161 96.8732353,20.1398601 98.4391821,20.1398601 C101.362283,20.1398601 103.554608,21.9230769 103.554608,24.965035 C103.554608,28.006993 101.362283,30 98.4391821,30 Z M86.642383,16.1538462 C87.9995369,16.1538462 88.6259156,16.3636364 88.6259156,16.3636364 L88.6259156,20.3496503 C88.6259156,20.3496503 84.9720397,19.0909091 82.7797142,21.7132867 L82.7797142,33.5664336 L78.3950632,33.5664336 L78.3950632,16.6783217 C78.3950632,16.6783217 81.7357497,16.6783217 82.0489391,16.6783217 C82.3621284,16.6783217 82.6753178,16.993007 82.6753178,17.3076923 L82.6753178,18.041958 C83.5104894,17.0979021 85.2852291,16.1538462 86.642383,16.1538462 Z M41.438719,32.0979021 C41.2299261,31.5734266 41.0211332,30.9440559 40.7079438,30.5244755 C40.3947545,29.6853147 39.9771687,28.951049 39.6639793,28.2167832 L39.6639793,28.2167832 C36.5320857,21.3986014 33.1913993,14.5804196 29.6419199,7.76223776 L29.5375234,7.44755245 C29.2243341,6.81818182 28.8067482,6.08391608 28.4935589,5.34965035 C28.0759731,4.51048951 27.5539908,3.67132867 26.8232156,2.83216783 C25.3616653,1.04895105 23.2737363,0 21.0814107,0 C18.7846888,0 16.8011562,0.944055944 15.2352094,2.72727273 C14.5044342,3.56643357 14.0868484,4.40559441 13.5648662,5.24475524 C13.2516768,5.97902098 12.834091,6.71328671 12.5209016,7.34265734 L12.4165052,7.65734266 C8.86702579,14.3706294 5.52633931,21.2937063 2.39444573,28.006993 L2.39444573,28.1118881 C2.08125637,28.8461538 1.66367056,29.5804196 1.35048121,30.4195804 C1.1416883,30.9440559 0.932895396,31.4685315 0.619706038,31.993007 C-0.00667267773,33.6713287 -0.11106913,35.2447552 0.0977237749,36.8181818 C0.619706038,40.1748252 2.81203154,43.006993 5.94392512,44.2657343 C7.0922861,44.7902098 8.34504353,45 9.59780096,45 C9.91099032,45 10.4329726,45 10.7461619,44.8951049 C12.2077123,44.6853147 13.7736591,44.2657343 15.2352094,43.3216783 C17.1143456,42.2727273 18.8890852,40.8041958 20.8726178,38.6013986 C22.8561504,40.8041958 24.6308901,42.2727273 26.5100263,43.3216783 C27.9715766,44.1608392 29.5375234,44.6853147 30.9990737,44.8951049 C31.3122631,44.8951049 31.8342454,45 32.1474347,45 C33.4001922,45 34.6529496,44.7902098 35.8013106,44.2657343 C38.9332041,43.006993 41.2299261,40.0699301 41.6475119,36.8181818 C42.1694942,35.3496503 42.0650977,33.7762238 41.438719,32.0979021 Z M20.9770143,34.4055944 C18.5758959,31.3636364 16.9055526,28.4265734 16.3835704,26.013986 C16.1747775,24.965035 16.070381,24.020979 16.2791739,23.2867133 C16.3835704,22.5524476 16.5923633,21.9230769 17.0099491,21.3986014 C17.8451207,20.1398601 19.3066711,19.4055944 20.9770143,19.4055944 C22.6473575,19.4055944 24.1089079,20.1398601 24.9440795,21.3986014 C25.2572689,21.9230769 25.5704582,22.5524476 25.6748547,23.2867133 C25.7792511,24.1258741 25.7792511,25.0699301 25.5704582,26.013986 C25.0484759,28.4265734 23.4825292,31.3636364 20.9770143,34.4055944 Z M39.0376006,36.6083916 C38.7244112,38.9160839 37.1584645,41.013986 34.8617425,41.8531469 C33.817778,42.2727273 32.5650205,42.4825175 31.4166596,42.2727273 C30.2682986,42.1678322 29.1199376,41.7482517 27.9715766,41.1188811 C26.3012334,40.1748252 24.7352866,38.8111888 22.751754,36.7132867 C25.7792511,33.041958 27.5539908,29.6853147 28.284766,26.7482517 C28.5979553,25.3846154 28.5979553,24.1258741 28.4935589,22.8671329 C28.284766,21.7132867 27.8671802,20.6643357 27.2408015,19.8251748 C25.8836476,17.8321678 23.4825292,16.5734266 20.8726178,16.5734266 C18.2627065,16.5734266 15.8615881,17.8321678 14.5044342,19.8251748 C13.8780555,20.7692308 13.4604697,21.8181818 13.2516768,22.8671329 C13.0428839,24.020979 13.1472804,25.3846154 13.4604697,26.7482517 C14.1912449,29.6853147 15.9659846,33.1468531 18.9934817,36.8181818 C17.1143456,38.9160839 15.4440023,40.2797203 13.7736591,41.2237762 C12.6252981,41.8531469 11.4769371,42.2727273 10.3285761,42.3776224 C9.0758187,42.4825175 7.92745772,42.3776224 6.88349319,41.958042 C4.69116769,41.013986 3.1252209,39.020979 2.70763509,36.7132867 C2.60323864,35.5594406 2.70763509,34.4055944 3.1252209,33.1468531 C3.43841026,32.6223776 3.64720316,32.2027972 3.85599607,31.6783217 C4.16918543,30.9440559 4.58677124,30.2097902 4.8999606,29.3706294 L4.8999606,29.2657343 C8.03185417,22.5524476 11.3725407,15.6293706 14.92202,9.02097902 L15.0264165,8.70629371 C15.3396059,8.07692308 15.7571917,7.34265734 16.070381,6.60839161 C16.5923633,5.97902098 17.0099491,5.24475524 17.4275349,4.72027972 C18.367103,3.67132867 19.6198604,3.04195804 21.0814107,3.04195804 C22.4385646,3.04195804 23.7957185,3.67132867 24.7352866,4.72027972 C25.2572689,5.34965035 25.6748547,5.97902098 25.988044,6.71328671 C26.3012334,7.34265734 26.7188192,8.07692308 27.0320085,8.81118881 L27.136405,9.12587413 C30.5814879,15.8391608 33.9221744,22.7622378 37.054068,29.4755245 L37.054068,29.4755245 C37.3672574,30.2097902 37.7848432,31.048951 38.0980325,31.7832168 C38.3068254,32.3076923 38.5156183,32.7272727 38.7244112,33.2517483 C39.1419971,34.3006993 39.2463935,35.3496503 39.0376006,36.6083916 Z" id="Shape"></path>
        </g>
    </g>
</svg>