<?xml version="1.0" encoding="UTF-8"?>
<svg width="315px" height="160px" viewBox="0 0 315 160" version="1.1" xmlns="http://www.w3.org/2000/svg" xmlns:xlink="http://www.w3.org/1999/xlink">
    <!-- Generator: Sketch 59.1 (86144) - https://sketch.com -->
    <title>Artboard</title>
    <desc>Created with Sketch.</desc>
    <g id="Artboard" stroke="none" stroke-width="1" fill="none" fill-rule="evenodd">
        <g id="ascension" transform="translate(63.000000, 55.000000)" fill-rule="nonzero">
            <path d="M19.13,24.87 C18.9916657,23.8116941 18.9082206,22.7469355 18.88,21.68 C18.8288945,14.7222703 21.6982969,8.0620644 26.79,3.32 L26.79,0.26 L26.66,0.38 C20.2468528,5.64289509 16.5445787,13.5139005 16.58,21.81 C16.5773034,23.1529544 16.7079441,24.492859 16.97,25.81 C17.6665002,25.4564494 18.3885231,25.1556065 19.13,24.91" id="Path" fill="#B6358D"></path>
            <path d="M25.13,42.35 C20.820857,45.7642803 15.4975606,47.6466092 10,47.7 C7.48984288,47.6968422 4.99472423,47.312459 2.6,46.56 L0,48.09 L0.13,48.09 C3.26308161,49.3671902 6.61663568,50.0161555 10,50 C16.1668145,50.0524397 22.1457672,47.8795661 26.84,43.88 C26.3209931,43.3339706 25.7664502,42.8228557 25.18,42.35" id="Path" fill="#00B294"></path>
            <path d="M43.5,46.43 C32.9814508,46.2803198 23.6897891,39.5416642 20.28,29.59 C19.9,30.74 19.39,31.59 19.13,32.53 C23.2401344,42.3514863 32.8531939,48.7378398 43.5,48.7200373 C46.904413,48.7187783 50.2775829,48.0706139 53.44,46.81 L53.57,46.81 L51,45.41 C48.5461284,46.0621218 46.0190173,46.3981738 43.48,46.41" id="Path" fill="#B6358D"></path>
            <path d="M34.7,21.43 C34.6910896,28.3028591 31.8258725,34.8627936 26.79,39.54 C27.3215898,40.0802326 27.9197207,40.5506727 28.57,40.94 C33.791187,35.9596206 36.8186206,29.108121 36.9855517,21.8944459 C37.1524828,14.6807709 34.4452203,7.69656513 29.46,2.48 C28.6636219,1.6404084 27.8117011,0.855304913 26.91,0.13 L26.79,0 L26.79,2.93 C31.8187506,7.77407931 34.6721698,14.4476893 34.7,21.43" id="Path" fill="#00B294"></path>
            <path d="M50,16.71 C52.93,19.01 54,20.54 54,22.83 C53.9656181,24.5236342 53.087658,26.0882042 51.66,27 C50.496866,27.6726046 49.1734838,28.0181352 47.83,28 C46.6516381,28.0240847 45.480855,27.8062646 44.39,27.36 C43.9423304,27.169661 43.679392,26.7013019 43.75,26.22 C43.75,25.07 43.88,24.17 43.88,23.66 L43.88,23.41 C43.88,22.64 44.26,22.52 44.39,22.52 C44.6672952,22.5302806 44.8897194,22.7527048 44.9,23.03 C44.9398558,23.3727205 45.0238867,23.7088439 45.15,24.03 C45.544421,25.3951284 46.799077,26.3310119 48.22,26.32 C49.6162448,26.4092143 50.8379353,25.3896739 51,24 L51,23.89 C51,23 50.75,21.98 48.83,20.45 L47.68,19.68 C45.13,17.77 44.24,16.11 44.24,14.07 C44.24,11.39 46.54,9.35 49.98,9.35 C51.0528767,9.37663474 52.120889,9.50385879 53.17,9.73 C53.55,9.86 53.68,10.12 53.68,10.24 C53.68,10.63 53.68,10.75 53.55,12.67 C53.55,13.05 53.55,13.56 53.04,13.56 C52.53,13.56 52.66,13.18 52.66,13.05 C52.5492888,12.6896088 52.3767152,12.3512291 52.15,12.05 C51.5897819,11.2820064 50.6792576,10.8493192 49.73,10.9 C48.3660538,10.78464 47.1665574,11.7961557 47.05,13.16 L47.05,13.16 C47.05,14.16 47.56,14.94 49.47,16.22 L50,16.71 Z M127.3,16.71 L126.66,16.33 C124.74,14.92 124.23,14.16 124.23,13.27 C124.305298,11.9296254 125.449242,10.9018627 126.79,10.97 C127.739258,10.9193192 128.649782,11.3520064 129.21,12.12 C129.511291,12.430526 129.692099,12.8382317 129.72,13.27 C129.72,13.52 129.85,13.78 130.1,13.78 C130.35,13.78 130.61,13.14 130.61,12.88 C130.74,10.97 130.74,10.88 130.74,10.46 C130.74,10.04 130.61,10.08 130.23,9.95 C129.179891,9.65489165 128.089926,9.52666042 127,9.57 C123.68,9.57 121.26,11.48 121.26,14.29 C121.26,16.29 122.41,18.11 124.7,19.9 L125.85,20.79 C127.77,22.32 128.02,23.47 128.02,24.23 C127.877834,25.7258651 126.591414,26.8498361 125.09,26.79 C123.66998,26.7952481 122.419715,25.855506 122.03,24.49 C121.9,24.11 121.9,23.98 121.77,23.49 C121.746677,23.2185814 121.531419,23.0033229 121.26,22.98 C121.01,22.98 120.88,23.11 120.75,23.87 L120.75,24.13 C120.75,24.51 120.62,25.53 120.62,26.68 C120.62,27.32 120.75,27.57 121.26,27.83 C122.356109,28.2570626 123.523684,28.4708918 124.7,28.46 C126.045905,28.4987095 127.374812,28.1517363 128.53,27.46 C129.933025,26.5117767 130.790114,24.9429313 130.83,23.25 C131.25,20.54 130.1,18.88 127.3,16.71 Z M74.49,23.21 C74.11,23.21 74.11,23.6 73.98,23.72 L73.85,23.98 C73.6902505,24.3907924 73.4749103,24.7777319 73.21,25.13 C72.32,26.13 71.3,26.4 69.13,26.4 C65.0224057,26.0547634 61.9269255,22.5170718 62.13,18.4 C62.13,15.72 62.77,13.93 64.13,12.66 C65.2747664,11.6116475 66.7892561,11.0612509 68.34,11.13 C69.9674957,11.0517742 71.5632477,11.5991959 72.8,12.66 C73.2003854,13.151132 73.5025433,13.7147075 73.69,14.32 C73.69,14.57 73.82,14.95 74.21,14.95 C74.6,14.95 74.72,14.57 74.72,14.19 L74.72,10.59 C74.72,10.33 74.59,10.2 74.21,10.08 L73.85,10 C73.3041143,9.84275348 72.7499306,9.71589214 72.19,9.62 C71.0513212,9.44855701 69.9015118,9.36165282 68.75,9.36 C65.43,9.36 63.01,10.13 61.23,11.91 C59.4239165,13.5913801 58.4047706,15.9524619 58.42,18.42 C58.3308424,21.1094618 59.397361,23.7084183 61.35,25.56 C63.6324844,27.4615006 66.5546984,28.4200726 69.52,28.24 C70.9804306,28.2809314 72.4390456,28.1091315 73.85,27.73 C74.1676708,27.5426026 74.4326026,27.2776708 74.62,26.96 C74.8436448,25.9882209 74.9709272,24.996758 75,24 C75.0539754,23.8569544 75.0471179,23.6980598 74.981019,23.5601964 C74.9149201,23.422333 74.7953277,23.3174893 74.65,23.27 L74.49,23.21 Z M91.84,24.49 C91.58,24.49 91.45,24.62 91.45,25 C91.33,25.64 91.07,26 90.56,26.15 C89.8525306,26.3376656 89.1216098,26.421873 88.39,26.4 C85.97,26.4 85.33,26.02 85.33,24.74 L85.33,19.39 C86.5648286,19.3582213 87.8004467,19.4016349 89.03,19.52 C89.92,19.64 90.31,19.77 90.43,20.03 C90.55,20.29 90.82,20.54 90.94,20.54 C91.06,20.54 91.33,20.41 91.33,19.77 L91.33,17.35 C91.3145243,17.1169893 91.1608158,16.9159859 90.94,16.84 C90.8497097,16.8287436 90.7586749,16.8541471 90.687259,16.9105281 C90.6158431,16.966909 90.5700057,17.0495626 90.56,17.14 L90.56,17.22 C90.56,17.35 90.43,17.35 90.43,17.47 C90.43,17.59 89.92,17.73 89.43,17.73 L85.2,17.73 L85.2,11.86 L89.54,11.86 C90.69,11.99 90.69,12.25 90.82,12.5 C90.908584,12.6547765 90.9502749,12.8319626 90.94,13.01 C90.9604624,13.2411048 91.1123301,13.439701 91.33,13.52 C91.45,13.52 91.71,13.52 91.71,13.14 L91.71,10.59 C91.71,10.2 91.45,10.08 91.33,10.08 L80.48,10.08 C79.97,10.08 79.72,9.95 79.72,10.33 C79.72,10.71 79.97,10.71 80.36,10.84 C80.75,10.97 80.74,10.97 80.87,10.97 C81.51,11.22 81.63,11.35 81.63,11.97 L81.63,20.9 C81.63,22.52 81.63,24.13 81.51,25.75 C81.4606649,26.1529802 81.3278377,26.5412444 81.12,26.89 C81,27.15 80.87,27.15 80.74,27.15 C80.61,27.15 80.1,27.28 80.1,27.53 C80.1,27.78 80.23,28.04 80.87,28.04 L90.56,28.04 C91.45,28.04 91.84,28.04 92.09,27.15 C92.2785548,26.4965935 92.4057721,25.8270286 92.47,25.15 C92.35,24.74 92.22,24.49 91.84,24.49 L91.84,24.49 Z M115.31,10 L111.31,10 C110.93,10 110.55,10 110.55,10.51 C110.55,11.02 110.93,10.89 111.18,11.02 C111.43,11.15 111.57,11.02 111.69,11.15 C112.08,11.4 112.33,11.66 112.33,13.06 L112.59,22.88 L108.25,18.54 L100.34,10.64 L100.09,10.38 C99.7,10 99.58,9.87 99.19,9.87 C98.8,9.87 98.68,10.64 98.68,11.02 L98.6,24.74 C98.6,26.66 98.47,27.3 98.09,27.42 C97.7,27.3 97.7,27.3 97.58,27.3 C97.306646,27.2736373 97.0477088,27.4273813 96.94,27.68 C96.94,28.19 97.45,28.19 97.7,28.19 L101.79,28.19 C102.3,28.19 102.68,27.93 102.68,27.68 C102.68,27.43 102.55,27.3 102.04,27.3 C101.902786,27.2978667 101.769768,27.2523604 101.66,27.17 C101.28,26.91 101.15,26.17 101.15,24.87 L100.77,15.87 C101.77,17.01 112.12,27.09 112.88,27.98 C113.117036,28.2948931 113.485925,28.4830263 113.88,28.49 C114.27,28.49 114.65,28.11 114.65,27.49 L114.78,12.83 C114.78,11.42 114.9,11.17 115.29,11.04 C115.68,10.91 115.54,11.04 115.67,10.91 C115.8,10.78 116.31,10.78 116.31,10.4 C116.31,10.02 115.69,10 115.31,10 Z M189,10 L185,10 C184.62,10 184.24,10 184.24,10.51 C184.24,11.02 184.62,10.89 184.88,11.02 C185.14,11.15 185.26,11.02 185.39,11.15 C185.77,11.4 186.03,11.66 186.03,13.06 L186.28,22.88 L182.07,18.67 C178.63,15.1 174.07,10.76 173.91,10.51 L173.65,10.25 C173.27,9.87 173.14,9.74 172.76,9.74 C172.38,9.74 172.25,10.51 172.25,10.89 L172.12,24.67 C172.12,26.58 171.99,27.22 171.61,27.35 C171.23,27.48 171.23,27.47 171.1,27.47 C170.824898,27.4484326 170.566947,27.6056211 170.46,27.86 C170.46,28.37 170.97,28.37 171.23,28.37 L175.31,28.37 C175.82,28.37 176.2,28.11 176.2,27.86 C176.2,27.61 176.08,27.47 175.57,27.47 C175.430685,27.4715222 175.294361,27.4295763 175.18,27.35 C174.8,27.09 174.67,26.35 174.67,25.05 L174.42,15.99 C175.42,17.14 185.77,27.22 186.54,28.11 C186.77501,28.4272959 187.14517,28.6160771 187.54,28.62 C187.92,28.62 188.3,28.24 188.3,27.62 L188.43,12.95 C188.43,11.55 188.56,11.29 188.94,11.17 C189.32,11.05 189.19,11.17 189.32,11.04 C189.45,10.91 189.96,10.91 189.96,10.53 C189.96,10.15 189.41,10 189,10 Z M143,27.17 L142.37,27.17 C141.86,27.04 141.73,26.79 141.73,26.28 C141.60107,24.6166594 141.557679,22.9477932 141.6,21.28 L141.6,12.37 C141.6,11.61 141.86,11.37 142.24,11.22 L142.75,11.22 C142.90138,11.2397505 143.054357,11.1979505 143.174659,11.1039641 C143.294962,11.0099778 143.372535,10.8716611 143.39,10.72 L143.39,10.72 C143.39,10.34 143.13,10.34 142.62,10.34 L137,10.34 C136.74,10.34 136.11,10.34 136.11,10.72 C136.11,11.1 136.23,11.23 136.74,11.23 C136.961348,11.211709 137.18333,11.2567991 137.38,11.36 C137.76,11.49 137.89,11.62 137.89,12.36 L137.89,21.3 C137.932321,22.9677932 137.88893,24.6366594 137.76,26.3 C137.64,26.93 137.51,27.06 137.25,27.19 C137.098604,27.2875121 136.919601,27.3331403 136.74,27.32 C136.468649,27.2915185 136.211384,27.4466939 136.11,27.7 C136.11,27.95 136.23,28.21 136.87,28.21 L142.74,28.21 C143.38,28.21 143.5,27.83 143.5,27.7 C143.5,27.57 143.62,27.17 143,27.17 Z M157.4,9.44 C150.64,9.44 147.58,14.29 147.58,18.88 C147.518255,21.3272017 148.432252,23.6985007 150.120515,25.4711762 C151.808777,27.2438518 154.132698,28.2723671 156.58,28.33 L157.28,28.33 C159.792394,28.4577932 162.252392,27.5806932 164.117208,25.8922279 C165.982025,24.2037626 167.098396,21.8427011 167.22,19.33 C167.234992,19.0502007 167.234992,18.7697993 167.22,18.49 C167.09,12.88 163.39,9.44 157.4,9.44 Z M158.16,26.53 C154.08,26.53 151.27,23.09 151.27,17.86 C151.27,11.61 154.72,10.71 156.76,10.71 C160.59,10.71 163.39,14.16 163.39,19.01 C163.26,25.89 159.69,26.53 158.16,26.53 Z M21.3,26.15 C23.0589777,25.7475516 24.8557169,25.5330155 26.66,25.51 C27.8106587,25.5315894 28.9591681,25.6183954 30.1,25.77 C30.87,27.68 31.63,29.46 32.4,31.25 C33.4024527,29.1164256 34.047706,26.8327021 34.31,24.49 C34.18,24.49 34.06,24.36 33.93,24.36 C31.51,19 28.83,13.14 27.55,10.2 C27.17,9.57 26.91,9.2 26.55,9.2 C26.19,9.2 25.91,9.59 25.55,10.2 C24.55,12.5 21.85,18.75 19.3,24.36 C9.21769755,27.218262 1.727681,35.6928817 0.13,46.05 L0.13,46.17 L2.68,44.77 C4.5262478,36.6381239 10.3174857,29.9686295 18.11,27 C16.2,31.46 14.67,34.91 14.67,35 C13.78,36.91 13.14,38.44 11.23,38.57 L10.46,38.57 C10.1456322,38.611612 9.92038422,38.8942762 9.95,39.21 C9.95,39.46 10.08,39.72 10.72,39.72 L18,39.72 C18.63,39.72 19,39.46 19,39.21 C19,38.96 18.87,38.57 18,38.57 C16.72,38.57 16.72,37.93 16.72,37.42 C16.7788327,36.5938486 16.950424,35.7796311 17.23,35 C17.48,35.33 19.26,30.87 21.3,26.15 Z M25.38,16.71 C25.52,16.5 25.65,16.29 25.77,16.07 C25.89,16.07 26.02,16.2 26.15,16.58 C26.66,17.98 27.81,20.66 29.08,23.58 C28.3222237,23.4669678 27.5557,23.4234533 26.79,23.45 C25.2955633,23.4030454 23.7998809,23.4866965 22.32,23.7 C23.73,20.79 24.75,18 25.38,16.71 L25.38,16.71 Z M53.32,46.17 C51.8370954,36.7643427 45.4766796,28.8509348 36.61,25.38 C36.3837184,26.031036 36.213106,26.7001043 36.1,27.38 C43.5316014,30.4398121 49.005918,36.929135 50.77,44.77 L53.32,46.17 Z M43.11,38.9 C42.8100344,38.8902512 42.5118359,38.8500446 42.22,38.78 C41.33,38.52 40.05,37.88 38.39,34.44 C38.01,33.67 37.12,31.38 35.72,28.57 C35.1845929,30.5073667 34.4576763,32.3866304 33.55,34.18 C34.7,36.73 35.33,38.39 35.33,38.39 L35.33,38.65 C35.233361,38.8532607 35.0424103,38.9955376 34.82,39.03 C34.57,39.03 33.93,39.16 33.93,39.67 C33.93,40.18 34.44,40.18 35.08,40.31 L43.24,40.31 C43.88,40.31 44.01,39.92 44.01,39.8 C43.88,39.16 43.5,38.9 43.11,38.9 Z" id="Shape" fill="#1A5FA8"></path>
        </g>
    </g>
</svg>