<?xml version="1.0" encoding="UTF-8"?>
<svg width="315px" height="160px" viewBox="0 0 315 160" version="1.1" xmlns="http://www.w3.org/2000/svg" xmlns:xlink="http://www.w3.org/1999/xlink">
    <!-- Generator: Sketch 59.1 (86144) - https://sketch.com -->
    <title>Artboard</title>
    <desc>Created with Sketch.</desc>
    <g id="Artboard" stroke="none" stroke-width="1" fill="none" fill-rule="evenodd">
        <g id="Delta" transform="translate(41.000000, 62.000000)" fill-rule="nonzero">
            <path d="M43.3063716,32.1671043 L22,22.1121986 L22,0 L43.3063716,32.1671043 Z M45,36 L22,26.4779184 L22,36 L45,36 Z" id="Shape" fill="#98002E"></path>
            <polyline id="Path" fill="#E31837" points="2 32 23 0 23 21.9973283 2 32"></polyline>
            <polyline id="Path" fill="#E31837" points="0 36 23 36 23 27 0 36"></polyline>
            <path d="M47.4324427,29.0043256 C47.9778752,28.9616695 48.5005723,29.2370489 48.7859595,29.7174166 C49.0713468,30.1977843 49.0713468,30.8022157 48.7859595,31.2825834 C48.5005723,31.7629511 47.9778752,32.0383305 47.4324427,31.9956744 C46.6530778,31.9912267 46.0185104,31.3494738 46.0003973,30.5474133 L46.0003973,30.5474133 C45.9914198,30.1549573 46.134883,29.7750254 46.3989865,29.4918341 C46.66309,29.2086429 47.0260166,29.0455863 47.4073191,29.038808 L47.4324427,29.0043256 Z M47.4324427,31.7542975 C48.1123365,31.7542975 48.6634993,31.18694 48.6634993,30.4870691 C48.6634993,29.7871982 48.1123365,29.2198407 47.4324427,29.2198407 C46.752549,29.2198407 46.2013862,29.7871982 46.2013862,30.4870691 L46.2013862,30.4870691 C46.1991575,30.820875 46.3258428,31.1419196 46.5535713,31.3795727 C46.7812998,31.6172259 47.0914158,31.752019 47.4156936,31.7542975 L47.4324427,31.7542975 Z M47.1225849,31.3491293 L46.9048471,31.3491293 L46.9048471,29.6250089 L47.5413117,29.6250089 C47.9349148,29.6250089 48.0689073,29.797421 48.0689073,30.0905214 C48.0884706,30.3417128 47.9103044,30.5633226 47.6669297,30.5905163 L48.1694017,31.3318881 L47.9349148,31.3318881 L47.4324427,30.5905163 L47.139334,30.5905163 L47.1225849,31.3491293 Z M47.1225849,30.4008631 L47.39057,30.4008631 C47.625057,30.4008631 47.8679185,30.4008631 47.8679185,30.0905214 C47.8679185,29.7801798 47.6669297,29.8146622 47.499439,29.8146622 L47.139334,29.8146622 L47.139334,30.4008631 L47.1225849,30.4008631 Z" id="Shape" fill="#98002E"></path>
            <path d="M63,32 L73.2291131,32 C83.7879177,32 90,26.5424034 90,17.4782739 C90,8.41414444 83.7445373,3 73.2291131,3 L63,3 L63,32 Z M69.4636889,8.02307462 L73.2291131,8.02307462 C80.0398458,8.02307462 83.4669023,11.403656 83.4669023,17.4782739 C83.4669023,23.5528918 79.9964653,26.9334732 73.2291131,26.9334732 L69.4636889,26.9334732 L69.4636889,8.02307462 Z" id="Shape" fill="#003D79"></path>
            <polygon id="Path" fill="#003D79" points="111.53955 19.4286998 123.927977 19.4286998 123.927977 14.3897543 111.53955 14.3897543 111.53955 8.03894548 125.545379 8.03894548 125.545379 3 105 3 105 32 126 32 126 26.9697424 111.53955 26.9697424"></polygon>
            <polygon id="Path" fill="#003D79" points="162 26.9697424 149.501372 26.9697424 149.501372 3 143 3 143 32 162 32"></polygon>
            <polygon id="Path" fill="#003D79" points="197 3 171 3 171 8.03894548 180.731553 8.03894548 180.731553 32 187.251085 32 187.251085 8.03894548 197 8.03894548"></polygon>
            <path d="M234,32 L227.352273,32 L224.565341,24.7694834 L213,24.7694834 L210.213068,32 L204,32 L215.931818,3 L222.349432,3 L234,32 Z M222.758523,19.9202747 L218.795455,9.64168408 L214.806818,19.9202747 L222.758523,19.9202747 Z" id="Shape" fill="#003D79"></path>
        </g>
    </g>
</svg>