<svg width="180" height="32" viewBox="0 0 180 32" fill="none" xmlns="http://www.w3.org/2000/svg">
<path d="M70.8046 16.775C70.8046 22.0164 66.9951 25.2742 62.8046 25.2742C60.9524 25.2742 58.7192 24.578 57.5632 22.9359V24.9589H52.9787V0H57.5632V10.6141C58.7192 8.97208 60.9524 8.27586 62.8046 8.27586C66.9951 8.27586 70.8046 11.5337 70.8046 16.775ZM66.1281 16.775C66.1281 14.358 64.2365 12.5846 61.9376 12.5846C59.8095 12.5846 57.7077 14.266 57.7077 16.775C57.7077 19.2578 59.7044 21.0049 61.9376 21.0049C64.2365 21.0049 66.1281 19.1527 66.1281 16.775Z" fill="#11111F"/>
<path d="M88.8538 8.66992V24.9327H84.2693V22.2791C83.573 24.4072 80.9852 25.3267 79.3694 25.3267C75.1001 25.3267 72.867 22.4893 72.9064 17.6026V8.68306H77.4909V17.1166C77.4909 19.665 79.0279 20.821 80.6042 20.821C82.2463 20.821 84.2693 19.9409 84.2693 17.0115V8.68306H88.8538V8.66992Z" fill="#11111F"/>
<path d="M91.0477 19.6781H95.3432C95.3432 20.624 96.1445 21.6354 97.7603 21.6354C99.087 21.6354 100.099 21.0706 100.099 20.1379C100.099 19.4417 99.5337 19.087 98.312 18.7717L96.1445 18.2463C91.9541 17.1297 91.3892 14.7914 91.3892 13.0706C91.3892 10.5484 94.0164 8.21014 97.7865 8.21014C100.755 8.21014 104.25 9.68141 104.223 13.5172H99.8489C99.8489 12.44 98.9425 11.8358 97.8522 11.8358C96.8013 11.8358 95.9606 12.3612 95.9606 13.2019C95.9606 13.977 96.6568 14.3579 97.5632 14.5944L100.256 15.2906C104.171 16.3415 104.657 18.7849 104.657 20.1116C104.657 23.5402 101.163 25.2217 97.7997 25.2217C94.4105 25.2348 91.0871 23.2775 91.0477 19.6781Z" fill="#11111F"/>
<path d="M106.286 2.9688C106.286 1.43185 107.612 0.23645 109.189 0.23645C110.791 0.23645 112.092 1.41872 112.092 2.9688C112.092 4.50574 110.805 5.72742 109.189 5.72742C107.612 5.74055 106.286 4.50574 106.286 2.9688ZM106.982 8.66994H111.448V24.9589H106.982V8.66994Z" fill="#11111F"/>
<path d="M130.653 15.9737V24.9327H126.069V16.4729C126.069 13.8851 124.532 12.7291 122.956 12.7291C121.314 12.7291 119.291 13.6092 119.291 16.578V24.9327H114.732V8.66996H119.291V11.3629C119.987 9.156 122.575 8.22333 124.19 8.22333C128.447 8.22333 130.693 11.087 130.653 15.9737Z" fill="#11111F"/>
<path d="M149.741 18.2463H137.432C137.918 20.1379 139.455 21.1888 141.662 21.1888C143.304 21.1888 144.946 20.5189 145.931 19.376L148.624 22.069C147.087 24.1314 144.223 25.248 141.36 25.248C136.355 25.248 132.69 21.8194 132.69 16.7882C132.69 11.5074 136.67 8.22333 141.36 8.22333C146.01 8.22333 149.819 11.5074 149.819 16.5123C149.806 16.959 149.78 17.5107 149.741 18.2463ZM145.235 15.2775C145.09 13.3596 143.488 12.2036 141.425 12.2036C139.573 12.2036 137.931 13.0838 137.445 15.2775H145.235Z" fill="#11111F"/>
<path d="M150.923 19.6781H155.218C155.218 20.624 156.02 21.6354 157.635 21.6354C158.962 21.6354 159.974 21.0706 159.974 20.1379C159.974 19.4417 159.409 19.087 158.187 18.7717L156.02 18.2463C151.829 17.1297 151.264 14.7914 151.264 13.0706C151.264 10.5484 153.892 8.21014 157.662 8.21014C160.631 8.21014 164.125 9.68141 164.098 13.5172H159.724C159.724 12.44 158.818 11.8358 157.727 11.8358C156.676 11.8358 155.836 12.3612 155.836 13.2019C155.836 13.977 156.532 14.3579 157.438 14.5944L160.131 15.2906C164.046 16.3415 164.532 18.7849 164.532 20.1116C164.532 23.5402 161.038 25.2217 157.675 25.2217C154.286 25.2348 150.962 23.2775 150.923 19.6781Z" fill="#11111F"/>
<path d="M165.78 19.6781H170.076C170.076 20.624 170.877 21.6354 172.493 21.6354C173.819 21.6354 174.831 21.0706 174.831 20.1379C174.831 19.4417 174.266 19.087 173.044 18.7717L170.877 18.2463C166.686 17.1297 166.121 14.7914 166.121 13.0706C166.121 10.5484 168.749 8.21014 172.519 8.21014C175.488 8.21014 178.982 9.68141 178.956 13.5172H174.581C174.581 12.44 173.675 11.8358 172.585 11.8358C171.534 11.8358 170.693 12.3612 170.693 13.2019C170.693 13.977 171.389 14.3579 172.296 14.5944L174.988 15.2906C178.903 16.3415 179.389 18.7849 179.389 20.1116C179.389 23.5402 175.895 25.2217 172.532 25.2217C169.143 25.2348 165.819 23.2775 165.78 19.6781Z" fill="#11111F"/>
<path d="M6.51559 19.5074V2.12805H0V18.417C0 22.8965 2.95566 24.9326 5.70114 24.9326C6.51559 24.9326 7.34318 24.7487 8.07881 24.4072C8.1839 24.3546 8.35467 24.2495 8.35467 24.2495C8.35467 24.2495 8.1839 24.0788 8.11822 24C7.08045 22.8177 6.51559 21.2676 6.51559 19.5074Z" fill="#FF00BF"/>
<path d="M44.532 15.1724V8.64367H42.2069C41.2348 3.52053 35.8489 0.157643 30.4368 2.18063C27.4286 3.31035 24.9721 6.90969 24.9721 10.1281V24.9326C24.9721 24.9326 25.2348 24.9326 25.248 24.9326H25.2611C26.9425 24.867 28.5058 24.1445 29.6749 22.9359C30.844 21.7143 31.4877 20.1116 31.4877 18.4302H34.2069V11.9146H31.4877V10.1281C31.4877 9.43185 31.8555 8.77503 32.4598 8.44663C34.1281 7.51395 35.8227 8.70935 35.8227 10.2988V16.2758C35.8227 18.6404 36.7159 20.8341 38.3317 22.4499C39.8818 24 41.9704 24.8932 44.2299 24.9589H44.5058V18.4433C43.2841 18.4433 42.3383 17.4581 42.3383 16.2758V15.1855H44.532V15.1724Z" fill="#FF00BF"/>
<path d="M16.8407 8.64368V17.3268C16.8407 17.931 16.3547 18.4171 15.7504 18.4171C15.1461 18.4171 14.6601 17.931 14.6601 17.3268V8.64368H8.1445V19.5074C8.1445 22.5025 10.5747 24.9327 13.5698 24.9327C14.8703 24.9327 16.1182 24.4729 17.1035 23.6322C16.9984 24.4335 16.5649 25.1034 15.8292 25.5632C15.133 25.9967 14.2397 26.22 13.2282 26.22C12.1905 26.22 11.1264 25.9704 10.1675 25.5107C10.1675 25.5107 9.99672 25.4318 9.7734 25.3005V31.1067C11.2184 31.6979 12.8079 32 14.358 32C16.7882 32 19.0082 31.2381 20.6108 29.8588C22.4105 28.3087 23.3563 26.0493 23.3563 23.3169V8.64368H16.8407Z" fill="#FF00BF"/>
</svg>
