<?xml version="1.0" encoding="UTF-8"?>
<svg width="315px" height="160px" viewBox="0 0 315 160" version="1.1" xmlns="http://www.w3.org/2000/svg" xmlns:xlink="http://www.w3.org/1999/xlink">
    <!-- Generator: Sketch 59.1 (86144) - https://sketch.com -->
    <title>Artboard</title>
    <desc>Created with Sketch.</desc>
    <defs>
        <linearGradient x1="58.466612%" y1="99.1673146%" x2="41.2311393%" y2="-1.238406%" id="linearGradient-1">
            <stop stop-color="#71C5E8" offset="0%"></stop>
            <stop stop-color="#00567E" offset="60%"></stop>
        </linearGradient>
        <linearGradient x1="41.5315262%" y1="0.816388889%" x2="58.7740924%" y2="101.25%" id="linearGradient-2">
            <stop stop-color="#71C5E8" offset="0%"></stop>
            <stop stop-color="#00567E" offset="60%"></stop>
        </linearGradient>
    </defs>
    <g id="Artboard" stroke="none" stroke-width="1" fill="none" fill-rule="evenodd">
        <g id="modivcare" transform="translate(24.000000, 58.000000)" fill-rule="nonzero">
            <g id="Group">
                <g transform="translate(46.849379, 12.378937)" id="Path">
                    <path d="M19.1958075,0.391999686 C18.3790528,0.391999686 14.4030745,0.391999686 14.4030745,0.391999686 C15.2198292,0.391999686 16.02,0.46627331 16.799441,0.602441622 C23.590528,1.77844068 28.7729814,7.85649896 28.7978571,15.1930825 C28.7978571,15.2137141 28.7978571,15.2302194 28.7978571,15.2508509 C28.7978571,20.7264676 24.4984938,25.1622535 19.1916615,25.1622535 C18.3666149,25.1622535 17.5622981,25.0549694 16.795295,24.8527801 C12.6493323,23.7551809 9.58546584,19.8723209 9.58546584,15.2508509 C9.58546584,15.2508509 9.58546584,15.2508509 9.58546584,15.2508509 C9.58546584,15.2508509 9.58546584,15.2508509 9.58546584,15.2467246 C9.58546584,15.2467246 9.58546584,15.2467246 9.58546584,15.2508509 C9.58546584,10.8852123 12.8151708,7.34483621 16.795295,7.34483621 C20.7754193,7.34483621 24.0051242,10.8852123 24.0051242,15.2508509 C24.0051242,10.6293809 20.9412578,6.75064722 16.795295,5.64892178 C16.0282919,5.44673247 15.2281211,5.33944835 14.3989286,5.33944835 C9.09209627,5.33944835 4.79273292,9.77523426 4.79273292,15.2508509 C4.79273292,15.2714825 4.79273292,15.2879877 4.79273292,15.3086193 C4.8176087,22.6452029 10.0000621,28.7232612 16.7911491,29.8992602 C17.5705901,30.0354285 18.3707609,30.1097022 19.1875155,30.1097022 C27.139472,30.1097022 33.5864441,23.4580864 33.5864441,15.2549772 C33.5864441,7.05186803 27.147764,0.391999686 19.1958075,0.391999686 Z" fill="url(#linearGradient-1)"></path>
                    <path d="M4.80102484,15.304493 C4.80102484,15.2838614 4.80102484,15.2673562 4.80102484,15.2467246 C4.80102484,9.77110795 9.1003882,5.33532204 14.4072205,5.33532204 C15.236413,5.33532204 16.0365839,5.44260616 16.803587,5.64479547 C20.9495497,6.74239459 24.0134161,10.6252546 24.0134161,15.2467246 C24.0134161,15.2467246 24.0134161,15.2467246 24.0134161,15.2467246 C24.0134161,15.2467246 24.0134161,15.2467246 24.0134161,15.2467246 C24.0134161,19.6123632 20.7837112,23.1527393 16.803587,23.1527393 C12.8234627,23.1527393 9.59375776,19.6123632 9.59375776,15.2467246 C9.59375776,19.8681946 12.6576242,23.7469283 16.803587,24.8486537 C17.5705901,25.0508431 18.3707609,25.1581272 19.1999534,25.1581272 C24.5067857,25.1581272 28.8061491,20.7223413 28.8061491,15.2467246 C28.8061491,15.226093 28.8061491,15.2095878 28.8061491,15.1889562 C28.7812733,7.85237265 23.5988199,1.77431437 16.8077329,0.598315309 C16.0282919,0.462146998 15.2281211,0.387873373 14.4113665,0.387873373 C6.45940994,0.387873373 0.0165838509,7.03948909 0.0165838509,15.2425983 C0.0165838509,23.4457075 6.4635559,30.0973232 14.4113665,30.0973232 C15.2281211,30.0973232 19.2040994,30.0973232 19.2040994,30.0973232 C18.3873447,30.0973232 17.5871739,30.0230496 16.8077329,29.8868813 C10.008354,28.7191349 4.82590062,22.6369503 4.80102484,15.304493 Z" fill="url(#linearGradient-2)"></path>
                </g>
                <g fill="#00567E" id="Shape">
                    <path d="M42.8692547,24.6588434 L42.8692547,41.9233348 L34.9090062,41.9233348 L34.9090062,25.7028004 C34.9090062,22.6617081 33.1055124,20.6975834 30.3194255,20.6975834 C27.475295,20.6975834 25.5640062,22.6452029 25.5640062,25.5418742 L25.5640062,41.9274611 L17.6037578,41.9274611 L17.6037578,25.7028004 C17.6037578,22.6617081 15.800264,20.6975834 13.014177,20.6975834 C10.124441,20.6975834 8.25875776,22.6617081 8.25875776,25.7028004 L8.25875776,41.9233348 L0.298509317,41.9233348 L0.298509317,14.0913571 L7.6534472,14.0913571 L7.6534472,16.1545134 C9.58546584,14.4090832 12.1476708,13.4889125 15.1078882,13.4889125 C18.6609783,13.4889125 21.4636491,14.7804513 23.2339752,17.2232283 C25.4271894,14.8464723 28.7107919,13.4889125 32.3011957,13.4889125 C38.8186491,13.4847892 42.8692547,17.7679015 42.8692547,24.6588434 Z M112.948463,0.169178812 L112.948463,41.9233348 L105.593525,41.9233348 L105.593525,39.0101582 C103.620047,41.2177354 100.630807,42.480387 97.0901553,42.480387 C89.2750155,42.480387 83.6033385,36.3982024 83.6033385,28.0176617 C83.6033385,19.6371211 89.2750155,13.5549365 97.0901553,13.5549365 C100.286693,13.5549365 103.064488,14.5617567 104.988214,16.4103447 L104.988214,0.169178812 L112.948463,0.169178812 Z M98.4707609,20.7594781 C94.5320963,20.7594781 91.675528,23.7881914 91.675528,27.9598934 C91.675528,32.2306268 94.4699068,35.2139507 98.4707609,35.2139507 C101.530481,35.2139507 105.100155,33.3282259 105.100155,28.0135354 C105.096009,23.0041921 101.766801,20.7594781 98.4707609,20.7594781 Z M125.883866,13.4847892 L118.230419,13.4847892 L118.230419,41.9233348 L125.883866,41.9233348 L125.883866,13.4847892 Z M122.032267,0.391999686 C119.652484,0.391999686 117.766071,2.17044036 117.766071,4.53894373 C117.766071,6.85793134 119.652484,8.63637202 122.032267,8.63637202 C124.41205,8.63637202 126.348214,6.85793134 126.348214,4.53894373 C126.348214,2.16631405 124.416196,0.391999686 122.032267,0.391999686 Z M150.888168,13.4806629 L144.387298,26.7508838 L137.886429,13.4806629 L129.507438,13.4806629 L144.18,42.0099874 L159.325202,13.4806629 L150.888168,13.4806629 Z M259.491661,25.5625058 C259.491661,26.8911784 259.42118,27.7453251 259.255342,28.3395141 L259.218028,28.4756824 L236.191351,28.4756824 C236.610093,34.6321406 241.282593,39.0803055 247.36472,39.0803055 C250.98,39.0803055 254.027283,37.6484751 256.419503,34.8260773 L256.552174,34.6692774 L258.641739,36.8149599 L258.529798,36.9428756 C255.6525,40.2851887 251.664084,42.1255241 247.302531,42.1255241 C247.207174,42.1296504 247.107671,42.1296504 247.012314,42.1296504 C243.351429,42.1296504 239.736149,40.6152937 237.057857,37.9496959 C234.288354,35.1933191 232.750202,31.4466274 232.833121,27.6627989 C232.750202,23.8170756 234.309084,20.0043629 237.115901,17.2108494 C239.831506,14.512241 243.314115,13.0639053 246.966708,13.1505579 C254.222143,13.1505579 259.491661,18.3703432 259.491661,25.5625058 Z M256.154161,25.5460006 C256.212205,22.9175395 255.370575,20.6191835 253.703898,18.8985112 C251.979177,17.1159442 249.545497,16.1338818 246.850621,16.1338818 C244.093556,16.1338818 241.796693,17.0292916 239.835652,18.869627 C237.924363,20.6068045 236.74691,22.8515185 236.324022,25.5418742 L256.154161,25.5418742 L256.154161,25.5460006 Z M213.757547,13.4847892 L213.761693,41.9192085 L210.656366,41.9192085 L210.548571,37.0047703 C207.20278,41.5230825 202.264938,42.0306189 200.237562,42.0306189 C196.605699,42.0306189 193.255761,40.6606832 190.801351,38.1766431 C188.181102,35.5234241 186.792205,31.863385 186.792205,27.5926515 C186.792205,19.0388058 192.194394,13.2908525 200.237562,13.2908525 C204.487174,13.2908525 208.02368,14.9331249 210.515404,18.0567434 L210.515404,13.4847892 L213.757547,13.4847892 Z M210.648075,27.3987149 C210.648075,19.265753 204.499612,16.3113132 200.370233,16.3113132 C195.262407,16.3113132 190.092391,20.1198996 190.092391,27.3987149 C190.092391,33.171426 193.645481,39.0142845 200.436568,39.0142845 C205.35368,39.0142845 210.648075,35.3790032 210.648075,27.3987149 Z M173.471227,16.1957765 C177.107236,16.1957765 180.113059,17.7225121 182.405776,20.7305939 L182.521863,20.8832675 L184.868478,19.001669 L184.760683,18.857248 C182.03264,15.1807036 178.023494,13.1546842 173.471227,13.1505579 C169.685963,13.0639053 165.97118,14.5906409 163.222407,17.3263861 C160.452904,20.0827628 158.914752,23.8294546 158.997671,27.6050305 C158.914752,31.4094906 160.465342,35.1850665 163.25972,37.9620748 C165.92972,40.61942 169.511832,42.1296504 173.127112,42.1296504 C173.222469,42.1296504 173.317826,42.1296504 173.413183,42.1255241 C177.940575,42.1255241 182.074099,40.0458626 184.760683,36.4188339 L184.868478,36.274413 L182.521863,34.3928145 L182.405776,34.5413618 C180.021848,37.5907067 177.078214,39.0761792 173.413183,39.0761792 C167.206677,39.0761792 162.343463,34.0379516 162.343463,27.6050305 C162.343463,21.2092461 167.231553,16.1957765 173.471227,16.1957765 Z M233.351366,13.521926 L233.164798,13.521926 C233.065295,13.521926 232.887019,13.4971681 232.67972,13.4682839 C232.327314,13.4187682 231.842236,13.3486209 231.361304,13.3486209 C227.501413,13.3486209 224.275854,14.9413775 222.219457,17.8504278 L222.219457,13.4889155 L219.047795,13.4889155 L219.047795,41.9233348 L222.335543,41.9233348 L222.335543,25.2571587 C222.335543,20.9864253 225.619146,16.4474815 231.709565,16.4474815 L233.355512,16.4474815 L233.355512,13.521926 L233.351366,13.521926 Z"></path>
                    <path d="M261.684876,16.8683654 L261.20809,16.8683654 L261.20809,13.5920733 L260.155016,13.5920733 L260.155016,13.1546842 L262.733804,13.1546842 L262.733804,13.5920733 L261.68073,13.5920733 L261.68073,16.8683654 L261.684876,16.8683654 Z M266.502484,13.7983889 L265.229674,16.8724917 L265.092857,16.8724917 L263.820047,13.7983889 L263.820047,16.8724917 L263.343261,16.8724917 L263.343261,13.1588105 L264.07295,13.1588105 L265.159193,15.8574189 L266.245435,13.1588105 L266.975124,13.1588105 L266.975124,16.8724917 L266.498339,16.8724917 L266.498339,13.7983889 L266.502484,13.7983889 Z"></path>
                </g>
            </g>
        </g>
        <text id="FORMERLY-LOGISTICARE" fill="#6D6E70" font-family="Helvetica" font-size="12" font-weight="normal">
            <tspan x="121" y="118">FORMERLY LOGISTICARE</tspan>
        </text>
    </g>
</svg>