<svg width="24" height="24" viewBox="0 0 32 32" style="fill:var(--core-ui-theme-text-primary,var(--core-ui-color-text-primary))" aria-hidden="true" focusable="false"><path d="M24.119 5.69V3h-1.594v2.69H9.475V3H7.881v2.69H6.287C4.494 5.69 3 7.084 3 8.977V29h22.713C27.506 29 29 27.506 29 25.713V5.69h-4.881ZM6.287 7.284h1.594v2.49h1.594v-2.49h13.05v2.49h1.594v-2.49h3.287v4.682H4.594V8.977c0-.996.797-1.693 1.693-1.693Zm19.426 20.122H4.593V13.46h22.813v12.153c0 .996-.797 1.793-1.693 1.793Z"/>
    <path d="M24.119 20.732h-4.383v4.383h4.383v-4.383Z"/></svg>