<svg width="24" height="24" viewBox="0 0 32 32" style="fill:var(--core-ui-theme-text-primary,var(--core-ui-color-text-primary))" aria-hidden="true" focusable="false"><path d="M15.972 3 4 6.205v10.218c0 5.503 3.084 7.65 7.467 10.068L16.002 29l4.535-2.51c4.354-2.448 7.468-4.595 7.468-10.067V6.205L15.972 3Zm10.37 13.423c0 4.656-2.51 6.38-6.621 8.677l-3.749 2.086-3.749-2.086c-4.142-2.298-6.62-4.02-6.62-8.677V7.444l10.37-2.781 10.369 2.781v8.98Z"/>
    <path d="M14.974 8.412V9.56c-1.572.182-2.75.968-3.265 2.207-.453 1.119-.211 2.359.635 3.145.847.786 2.117.937 3.356 1.088.968.12 1.995.242 2.48.665.21.181.271.514.15.877-.242.665-.997 1.058-2.056 1.058-1.783 0-2.57-.635-2.841-.907l-1.452 1.36c.424.454 1.36 1.18 2.993 1.452v1.209h1.996v-1.149c1.814-.212 2.842-1.3 3.235-2.298.423-1.118.15-2.327-.726-3.083-.967-.816-2.328-.998-3.567-1.119-.877-.09-1.845-.211-2.207-.544-.242-.212-.303-.575-.152-.937.242-.635.998-.998 2.026-.998 1.784 0 2.6.635 2.842.937l1.481-1.36c-.423-.454-1.33-1.18-2.932-1.451v-1.24h-1.996v-.06Z"/></svg>