<svg width="16" height="16" viewBox="0 0 16 16" style="fill:currentColor" aria-hidden="true" focusable="false"><path d="M8 1C4.155 1 1 4.1 1 8s3.155 7 7 7 7-3.1 7-7c-.099-3.9-3.254-7-7-7Zm2.86 9.1c-.297.7-.987 1.4-2.268 1.6v.9H7.31v-.9c-1.085-.2-1.775-.6-2.07-1l.985-.8c.198.2.79.6 1.972.6.888 0 1.38-.4 1.48-.8.098-.3 0-.5-.1-.7-.394-.3-1.084-.4-1.774-.5-.888-.1-1.676-.2-2.268-.7-.591-.5-.69-1.4-.394-2.1.296-.9 1.183-1.4 2.267-1.5v-.9h1.184v.9c1.084.2 1.676.6 2.07 1l-.986.8c-.296-.2-.789-.6-1.972-.6-.789 0-1.281.3-1.479.7-.098.3-.098.6.099.7.296.3.986.3 1.577.4.888.1 1.775.2 2.465.8.592.6.789 1.4.493 2.1Z"/></svg>