<svg width="24" height="24" viewBox="0 0 32 32" style="fill:var(--core-ui-theme-text-primary,var(--core-ui-color-text-primary))" aria-hidden="true" focusable="false"><path d="m9.431 19.428-.7-1.259-.7 1.26a8.737 8.737 0 0 1-3.442 3.47l-1.259.671 1.26.7a8.807 8.807 0 0 1 3.47 3.47l.7 1.26.7-1.26a8.807 8.807 0 0 1 3.47-3.47l1.259-.7-1.26-.7a8.631 8.631 0 0 1-3.498-3.442Zm-.7 6.465A9.922 9.922 0 0 0 6.438 23.6a9.923 9.923 0 0 0 2.295-2.295 9.926 9.926 0 0 0 2.294 2.295 9.924 9.924 0 0 0-2.294 2.294Zm.672-14.805a9.978 9.978 0 0 1 4.03-4.03A10.221 10.221 0 0 1 9.403 3c-.923 1.707-2.35 3.107-4.058 4.058a10.22 10.22 0 0 1 4.058 4.03Zm18.22 3.667a19.02 19.02 0 0 1-7.585-7.585l-.7-1.26-.7 1.26a18.674 18.674 0 0 1-7.584 7.585l-1.259.7 1.26.699a19.019 19.019 0 0 1 7.584 7.584l.7 1.26.7-1.26a18.675 18.675 0 0 1 7.584-7.584l1.26-.7-1.26-.7Zm-8.284 7.052a20.54 20.54 0 0 0-6.353-6.353 20.541 20.541 0 0 0 6.353-6.353 20.544 20.544 0 0 0 6.353 6.353 20.846 20.846 0 0 0-6.353 6.353Z"/></svg>