<svg width="24" height="24" viewBox="0 0 32 32" style="fill:var(--core-ui-theme-text-primary,var(--core-ui-color-text-primary))" aria-hidden="true" focusable="false"><path d="M25.2 8.25c-.7 0-1.7.3-2.6 1.5-1.4-.1-2.4-.5-2.4-.5-3.6-1.3-6.8-.6-8.4 0h-.1c-1 .4-1.7.5-2.3.5-.8-1.2-1.9-1.5-2.6-1.5-1.3 0-2.3.8-3 2.3-.5 1.2-.8 2.8-.8 4.5 0 3.4 1.2 6.8 3.8 6.8.2 0 .4 0 .5-.1.3.6.7 1 1.3 1.1 2.4.6 4.9.9 7.3.9 2.4 0 4.9-.3 7.3-.9.6-.1 1-.6 1.3-1.1.2 0 .4.1.6.1 1.3 0 2.3-.8 3-2.3.6-1.3.9-2.9.9-4.5 0-3.4-1.2-6.8-3.8-6.8ZM6.8 20.15c-1.4 0-2.2-2.6-2.2-5.2s.8-5.2 2.2-5.2c.2 0 .6 0 1.1.6-.7 1.1-1.1 2.8-1.2 4.3-.2 1.5-.2 3.8.1 5.5Zm16.1 1.2c-4.5 1.1-9.3 1.1-13.9 0-.1 0-.7-.7-.8-2.9-.3-3.6.5-6.7 1.1-7 .7 0 1.7-.1 3-.5h.1c1.4-.5 4.1-1.2 7.3 0 .1 0 1.3.5 3 .6.6.2 1.4 3.3 1.1 6.9-.2 2-.7 2.8-.9 2.9Zm3.8-2.6c-.3.6-.8 1.4-1.5 1.4.4-1.6.4-3.7.2-5.1-.1-1.4-.5-3.5-1.3-4.6.5-.7 1-.7 1.1-.7 1.4 0 2.2 2.6 2.2 5.2 0 1.5-.3 2.9-.7 3.8Z"/>
    <path d="M20.2 12.85h-8.3v1.6h8.3v-1.6Z"/></svg>