<svg width="24" height="24" viewBox="0 0 32 32" style="fill:var(--core-ui-theme-text-primary,var(--core-ui-color-text-primary))" aria-hidden="true" focusable="false"><path d="M11.87 9.857V3h-1.601v6.857H7.17V3h-1.6v9.398c0 2.123 1.566 2.889 2.784 3.515 1.15.557 1.81.94 1.915 1.845V29h1.6V17.758c.105-.87.767-1.253 1.915-1.81 1.253-.627 2.82-1.392 2.82-3.516V3h-1.602v6.857H11.87Zm1.183 4.664c-.661.313-1.427.696-1.984 1.322-.557-.626-1.322-1.009-1.984-1.357-1.218-.627-1.914-1.01-1.914-2.088v-.94h7.797v.94c0 1.113-.697 1.496-1.915 2.123ZM25.618 3a6.684 6.684 0 0 0-6.682 6.683v11.103h5.046c.453 0 .836.383.836.835V29h1.6V3h-.8Zm-.8 16.324c-.244-.105-.557-.14-.836-.14h-3.445v-9.5a5.06 5.06 0 0 1 4.28-5.012v14.653Z"/></svg>