<svg width="16" height="16" viewBox="0 0 16 16" style="fill:currentColor" aria-hidden="true" focusable="false"><path d="M7.998 4.918a3.08 3.08 0 1 0 0 6.16 3.08 3.08 0 0 0 0-6.16Zm0 5.08a2 2 0 1 1 0-4 2 2 0 0 1 0 4Z" clip-rule="evenodd" fill-rule="evenodd"/>
    <path d="M11.2 5.516a.72.72 0 1 0 0-1.44.72.72 0 0 0 0 1.44Z"/>
    <path d="M7.998 2c-1.629 0-1.833.007-2.473.036-.638.03-1.074.13-1.456.279a2.94 2.94 0 0 0-1.062.692 2.94 2.94 0 0 0-.692 1.062c-.148.382-.25.818-.279 1.456-.03.64-.036.844-.036 2.473 0 1.63.007 1.833.036 2.473.03.639.13 1.075.279 1.456.153.395.358.729.692 1.063.333.333.668.538 1.062.691.382.149.818.25 1.456.28.64.028.844.035 2.473.035 1.63 0 1.833-.007 2.473-.036.639-.029 1.075-.13 1.456-.279a2.939 2.939 0 0 0 1.063-.691c.333-.334.538-.668.691-1.063.149-.381.25-.817.28-1.456.028-.64.035-.844.035-2.473s-.007-1.833-.036-2.473c-.029-.638-.13-1.074-.279-1.456a2.939 2.939 0 0 0-.691-1.062 2.94 2.94 0 0 0-1.063-.692c-.381-.148-.817-.25-1.456-.279C9.831 2.006 9.627 2 7.998 2Zm0 1.08c1.602 0 1.791.007 2.424.036.585.026.902.124 1.114.206.28.11.48.239.69.449.21.21.34.41.448.69.082.211.18.529.207 1.113.028.633.034.823.034 2.424 0 1.602-.006 1.791-.034 2.424-.027.585-.125.902-.207 1.114-.109.28-.239.48-.449.69-.21.21-.41.34-.69.448-.21.082-.528.18-1.113.207-.633.028-.822.034-2.424.034-1.602 0-1.791-.006-2.424-.034-.584-.027-.902-.125-1.113-.207a1.858 1.858 0 0 1-.69-.449c-.21-.21-.34-.41-.449-.69-.082-.21-.18-.528-.206-1.113-.03-.633-.035-.822-.035-2.424 0-1.601.006-1.791.035-2.424.026-.584.124-.902.206-1.113.11-.28.239-.48.449-.69.21-.21.41-.34.69-.449.211-.082.529-.18 1.113-.206.633-.03.823-.035 2.424-.035Z" clip-rule="evenodd" fill-rule="evenodd"/></svg>