<svg width="24" height="24" viewBox="0 0 32 32" style="fill:currentColor" aria-hidden="true" focusable="false"><path d="M24.351 6.027a13.025 13.025 0 0 0-3.987-2.282l-.544 1.533a11.331 11.331 0 0 1 3.489 1.996l1.042-1.247Zm3.912 5.621a12.927 12.927 0 0 0-2.28-3.99l-1.248 1.045a11.337 11.337 0 0 1 1.998 3.489l1.53-.544Z"/>
    <path d="m28.84 13.884-1.605.264a11.392 11.392 0 0 1-11.225 13.23A11.39 11.39 0 0 1 4.636 16 11.39 11.39 0 0 1 17.865 4.774l.263-1.603A13.012 13.012 0 0 0 3 16a13.015 13.015 0 0 0 12.998 13A13.012 13.012 0 0 0 29 16c.003-.708-.05-1.416-.16-2.116Z"/>
    <path d="M14.995 8.501v8.513h6.543v-2.031h-4.511V8.5h-2.032Z"/></svg>