<svg width="16" height="16" viewBox="0 0 16 16" style="fill:var(--core-ui-theme-icon-primary,var(--core-ui-color-icon-primary))" aria-hidden="true" focusable="false"><path d="m14.642 12.861-2.365-2.363a6.128 6.128 0 0 0-1.26-8.122 6.146 6.146 0 0 0-8.218.42 6.131 6.131 0 0 0 3.401 10.4 6.147 6.147 0 0 0 4.308-.931l2.359 2.366c.236.232.553.364.884.369a1.255 1.255 0 0 0 1.225-1.496 1.252 1.252 0 0 0-.34-.64l.006-.003zM3.014 7.142a4.127 4.127 0 0 1 2.552-3.817 4.14 4.14 0 0 1 4.507.896 4.129 4.129 0 0 1-2.925 7.05 4.141 4.141 0 0 1-2.922-1.21 4.132 4.132 0 0 1-1.212-2.919z"/></svg>