<svg width="16" height="16" viewBox="0 0 16 16" style="fill:currentColor" aria-hidden="true" focusable="false"><path d="M4.301 5.473c.948 0 1.712-.764 1.712-1.711 0-.948-.764-1.712-1.712-1.712a1.71 1.71 0 0 0-1.712 1.712 1.71 1.71 0 0 0 1.712 1.711Zm7.428 0a1.71 1.71 0 0 0 1.712-1.711 1.71 1.71 0 0 0-1.712-1.712c-.948 0-1.712.764-1.712 1.712 0 .947.764 1.711 1.712 1.711ZM8 9.294c-1.865 0-2.63.795-2.63 2.69v1.956h5.228v-1.956c0-1.895-.825-2.69-2.598-2.69Zm0-1.07c.856 0 1.528-.672 1.528-1.528S8.856 5.168 8 5.168s-1.53.672-1.53 1.528S7.144 8.224 8 8.224ZM5.463 6.696v-.092c-.337-.091-.734-.122-1.162-.122C1.947 6.482 1 7.491 1 9.875v2.904h3.118v-.795c0-2.109.886-3.148 1.987-3.607a2.495 2.495 0 0 1-.642-1.68Zm6.266-.214c-.459 0-.856.061-1.223.122v.092a2.51 2.51 0 0 1-.672 1.712c1.283.55 1.986 1.773 1.986 3.576v.795H15V9.875c.03-2.384-1.01-3.393-3.271-3.393Z"/></svg>