<svg width="24" height="24" viewBox="0 0 32 32" style="fill:var(--core-ui-theme-text-primary,var(--core-ui-color-text-primary))" aria-hidden="true" focusable="false"><path d="M4.8 25.6h5.9V29h1.7v-5.1H4.8v1.7ZM17.5 8C18.9 8 20 6.9 20 5.5S18.9 3 17.5 3 15 4.1 15 5.5 16.1 8 17.5 8Z"/>
    <path d="M25.3 5.4s-.6 1.2-2.5 2.6c-1.1.8-2.6 1.3-4 1.3h-2.7c-2.2 0-4.2 1.2-5.3 3.1-1.4 2.6-1.9 4.3-1.9 4.4l2.1.5s.4-1.6 1.7-3.9c.4-.7 1-1.3 1.8-1.6V29h2.1v-9.8h1.9V29h2.1V11.2c1.2-.3 2.4-.7 3.4-1.5 2.4-1.7 3.1-3.2 3.2-3.4l-1.9-.9Z"/></svg>