<svg width="16" height="16" viewBox="0 0 16 16" style="fill:currentColor" aria-hidden="true" focusable="false"><path d="M5.403 13.376c5.283 0 8.172-4.377 8.172-8.173 0-.124 0-.248-.008-.371A5.844 5.844 0 0 0 15 3.345a5.732 5.732 0 0 1-1.65.452 2.882 2.882 0 0 0 1.263-1.589c-.564.335-1.18.57-1.824.697a2.875 2.875 0 0 0-4.895 2.62 8.155 8.155 0 0 1-5.92-3 2.874 2.874 0 0 0 .89 3.833 2.85 2.85 0 0 1-1.304-.36v.037c0 1.368.964 2.545 2.304 2.816a2.868 2.868 0 0 1-1.297.05 2.876 2.876 0 0 0 2.684 1.994A5.763 5.763 0 0 1 1 12.085a8.132 8.132 0 0 0 4.403 1.289"/></svg>