<?xml version="1.0" encoding="iso-8859-1"?>
<!-- Generator: Adobe Illustrator 19.0.0, SVG Export Plug-In . SVG Version: 6.00 Build 0)  -->
<svg version="1.1" id="Layer_1" xmlns="http://www.w3.org/2000/svg" xmlns:xlink="http://www.w3.org/1999/xlink" x="0px" y="0px"
	 viewBox="0 0 512 512" style="enable-background:new 0 0 512 512;" xml:space="preserve">
<path style="fill:#9BC9FF;" d="M439.574,329.716l-82.725-55.141V147.366c0-0.071-0.009-0.141-0.011-0.213
	c-0.006-0.69-0.037-1.376-0.104-2.053c-0.014-0.146-0.036-0.29-0.054-0.434c-0.062-0.538-0.146-1.071-0.242-1.598
	c-0.04-0.214-0.079-0.428-0.124-0.641c-0.132-0.608-0.285-1.209-0.464-1.798c-0.065-0.217-0.144-0.431-0.216-0.647
	c-0.143-0.42-0.293-0.836-0.458-1.246c-0.095-0.236-0.188-0.472-0.29-0.704c-0.245-0.56-0.507-1.112-0.796-1.649
	c-0.087-0.161-0.185-0.32-0.278-0.479c-0.164-0.292-0.326-0.586-0.504-0.872L275.732,10.938C271.481,4.133,264.023,0,256,0
	c-3.51,0-6.912,0.791-9.984,2.251c-3.95,1.877-7.357,4.859-9.75,8.685L158.691,135.03c-0.178,0.287-0.34,0.58-0.504,0.872
	c-0.047,0.081-0.092,0.16-0.138,0.24c-0.047,0.081-0.096,0.158-0.138,0.24c-0.289,0.537-0.549,1.089-0.796,1.649
	c-0.101,0.233-0.195,0.469-0.29,0.704c-0.163,0.41-0.315,0.825-0.458,1.246c-0.071,0.216-0.15,0.43-0.216,0.647
	c-0.178,0.59-0.332,1.19-0.464,1.798c-0.045,0.213-0.084,0.427-0.124,0.641c-0.098,0.528-0.18,1.06-0.242,1.598
	c-0.019,0.146-0.04,0.289-0.054,0.434c-0.067,0.675-0.098,1.361-0.104,2.053c-0.002,0.071-0.011,0.141-0.011,0.213v127.209
	l-82.725,55.141c-6.476,4.316-10.366,11.582-10.366,19.364v139.647c0,12.853,10.42,23.273,23.273,23.273h93.091
	c12.853,0,23.273-10.42,23.273-23.273v-23.273H256h54.303v23.273c0,12.853,10.42,23.273,23.273,23.273h93.091
	c12.853,0,23.273-10.42,23.273-23.273V349.08C449.939,341.298,446.05,334.032,439.574,329.716z"/>
<circle style="fill:#BDFDFF;" cx="256" cy="240.469" r="31.03"/>
<path style="fill:#6E76E5;" d="M356.734,145.099c-0.014-0.146-0.036-0.29-0.054-0.434c-0.062-0.538-0.146-1.071-0.242-1.598
	c-0.04-0.214-0.079-0.428-0.124-0.641c-0.132-0.608-0.285-1.209-0.464-1.798c-0.065-0.217-0.144-0.431-0.216-0.647
	c-0.143-0.42-0.293-0.836-0.458-1.246c-0.095-0.236-0.188-0.472-0.29-0.704c-0.245-0.56-0.507-1.112-0.796-1.649
	c-0.087-0.161-0.185-0.32-0.278-0.479c-0.164-0.292-0.326-0.586-0.504-0.872L275.732,10.937C271.481,4.133,264.023,0,256,0
	c-8.023,0-15.481,4.133-19.734,10.937L158.691,135.03c-0.178,0.287-0.34,0.58-0.504,0.872c-0.093,0.161-0.191,0.318-0.278,0.479
	c-0.289,0.537-0.549,1.089-0.796,1.649c-0.101,0.233-0.195,0.469-0.29,0.704c-0.163,0.41-0.315,0.825-0.458,1.246
	c-0.071,0.216-0.15,0.43-0.216,0.647c-0.178,0.59-0.332,1.19-0.464,1.798c-0.045,0.213-0.084,0.427-0.124,0.641
	c-0.098,0.528-0.18,1.06-0.242,1.598c-0.019,0.146-0.04,0.289-0.054,0.434c-0.067,0.675-0.098,1.361-0.104,2.053
	c-0.036,3.95,0.923,7.914,2.906,11.494c4.102,7.401,11.895,11.992,20.356,11.992h23.273h54.303h54.303h23.273
	c8.46,0,16.255-4.591,20.356-11.992c1.983-3.579,2.942-7.543,2.906-11.494C356.831,146.461,356.8,145.776,356.734,145.099z"/>
<path style="fill:#424EDE;" d="M155.152,442.182v-111.67v-27.969v-27.968l-82.725,55.141c-6.476,4.316-10.366,11.582-10.366,19.364
	v139.647c0,12.853,10.42,23.273,23.273,23.273h93.091c12.853,0,23.273-10.42,23.273-23.273v-23.273h-23.273
	C165.571,465.455,155.152,455.035,155.152,442.182z"/>
<path style="fill:#6E76E5;" d="M449.939,488.727V349.08c0-7.782-3.89-15.048-10.366-19.364l-82.725-55.141v27.968v27.969v111.67
	c0,12.853-10.42,23.273-23.273,23.273h-23.273v23.273c0,12.853,10.42,23.273,23.273,23.273h93.091
	C439.519,512,449.939,501.58,449.939,488.727z"/>
<path style="fill:#B3D8F4;" d="M224.97,240.466c0,17.14,13.892,31.032,31.03,31.032v-62.061
	C238.862,209.437,224.97,223.33,224.97,240.466z"/>
<path style="fill:#57A4FF;" d="M224.97,240.466c0-17.136,13.892-31.029,31.03-31.029v-38.8h-54.303h-23.273
	c-8.46,0-16.255-4.591-20.356-11.992c-1.983-3.579-2.942-7.543-2.906-11.494c-0.002,0.071-0.011,0.141-0.011,0.213v127.209v27.968
	v27.969v111.672c0,12.853,10.42,23.273,23.273,23.273h23.273H256V271.498C238.862,271.498,224.97,257.606,224.97,240.466z"/>
<path style="fill:#424EDE;" d="M178.424,170.637h23.273H256V0c-8.023,0-15.479,4.133-19.734,10.937l-77.576,124.092
	c-0.178,0.287-0.34,0.58-0.504,0.872c-0.093,0.161-0.191,0.318-0.278,0.479c-0.289,0.537-0.549,1.089-0.796,1.649
	c-0.101,0.233-0.195,0.469-0.29,0.704c-0.163,0.41-0.315,0.825-0.458,1.246c-0.071,0.216-0.15,0.43-0.216,0.647
	c-0.178,0.59-0.332,1.19-0.464,1.798c-0.045,0.213-0.084,0.427-0.124,0.641c-0.098,0.528-0.18,1.06-0.242,1.598
	c-0.019,0.146-0.04,0.289-0.054,0.434c-0.067,0.676-0.099,1.361-0.104,2.053c-0.036,3.95,0.923,7.914,2.906,11.494
	C162.169,166.046,169.964,170.637,178.424,170.637z"/>
<g>
</g>
<g>
</g>
<g>
</g>
<g>
</g>
<g>
</g>
<g>
</g>
<g>
</g>
<g>
</g>
<g>
</g>
<g>
</g>
<g>
</g>
<g>
</g>
<g>
</g>
<g>
</g>
<g>
</g>
</svg>
