<?xml version="1.0" encoding="iso-8859-1"?>
<!-- Generator: Adobe Illustrator 19.0.0, SVG Export Plug-In . SVG Version: 6.00 Build 0)  -->
<svg version="1.1" id="Layer_1" xmlns="http://www.w3.org/2000/svg" xmlns:xlink="http://www.w3.org/1999/xlink" x="0px" y="0px"
	 viewBox="0 0 511.999 511.999" style="enable-background:new 0 0 511.999 511.999;" xml:space="preserve">
<g>
	<g>
		<path d="M465.252,471.93l-47.861-63.814v-85.334c0-4.11-2.265-7.886-5.892-9.821l-77.586-41.38V135.914
			c0-53.987-26.819-104.097-71.739-134.045c-3.739-2.492-8.608-2.492-12.348,0c-44.92,29.946-71.739,80.057-71.739,134.045v135.668
			l-77.586,41.38c-3.627,1.933-5.892,5.71-5.892,9.82v85.334L46.748,471.93c-2.529,3.373-2.937,7.885-1.051,11.656
			c1.887,3.771,5.739,6.153,9.955,6.153h122.435v11.13c0,6.147,4.984,11.13,11.13,11.13h133.565c6.146,0,11.13-4.983,11.13-11.13
			v-11.13h122.435c4.216,0,8.07-2.382,9.955-6.153S467.781,475.302,465.252,471.93z M178.087,456.347v11.13H77.913l36.73-48.974
			c1.445-1.927,2.226-4.27,2.226-6.678V329.46l61.217-32.649V456.347z M311.652,278.26v166.957h-11.13
			c-6.146,0-11.13,4.983-11.13,11.13s4.984,11.13,11.13,11.13h11.13v11.13v11.13H200.348v-11.13v-11.13h33.391
			c6.146,0,11.13-4.983,11.13-11.13s-4.984-11.13-11.13-11.13h-33.391V278.26V135.914c0-43.997,20.669-85.009,55.652-111.163
			c34.983,26.154,55.652,67.165,55.652,111.163V278.26z M333.913,467.477v-11.13V296.81l61.217,32.65v82.365
			c0,2.409,0.781,4.752,2.226,6.678l36.73,48.974H333.913z"/>
	</g>
</g>
<g>
	<g>
		<path d="M278.048,454.175c-0.144-0.712-0.367-1.412-0.646-2.081c-0.278-0.679-0.623-1.325-1.024-1.926
			c-0.4-0.612-0.867-1.18-1.38-1.692c-0.512-0.512-1.08-0.979-1.692-1.38c-0.601-0.401-1.247-0.746-1.926-1.024
			c-0.668-0.278-1.368-0.501-2.08-0.634c-1.436-0.289-2.916-0.289-4.341,0c-0.712,0.134-1.414,0.356-2.081,0.634
			c-0.679,0.278-1.323,0.623-1.924,1.024c-0.613,0.401-1.181,0.868-1.693,1.38c-0.512,0.512-0.979,1.08-1.38,1.692
			c-0.412,0.601-0.746,1.247-1.024,1.926c-0.278,0.668-0.501,1.369-0.633,2.081c-0.146,0.712-0.223,1.447-0.223,2.17
			s0.077,1.458,0.223,2.17c0.132,0.712,0.355,1.414,0.633,2.081c0.278,0.679,0.612,1.325,1.024,1.926
			c0.401,0.612,0.868,1.18,1.38,1.692c0.512,0.512,1.08,0.979,1.693,1.38c0.601,0.401,1.245,0.746,1.924,1.024
			c0.669,0.278,1.369,0.501,2.081,0.634c0.712,0.145,1.447,0.223,2.17,0.223c0.722,0,1.458-0.078,2.17-0.223
			c0.712-0.134,1.414-0.356,2.08-0.634c0.679-0.278,1.325-0.623,1.926-1.024c0.612-0.401,1.18-0.868,1.692-1.38
			c0.513-0.512,0.981-1.08,1.38-1.692c0.401-0.601,0.746-1.247,1.024-1.926c0.278-0.668,0.501-1.369,0.646-2.081
			s0.211-1.447,0.211-2.17C278.26,455.622,278.192,454.888,278.048,454.175z"/>
	</g>
</g>
<g>
	<g>
		<path d="M255.999,200.347c-18.411,0-33.39,14.978-33.39,33.39v66.785c0,18.411,14.979,33.39,33.39,33.39
			c18.411,0,33.39-14.979,33.39-33.39v-66.785C289.389,215.325,274.41,200.347,255.999,200.347z M255.999,311.651
			c-6.137,0-11.129-4.993-11.129-11.129v-66.785c0-6.137,4.992-11.129,11.129-11.129c6.137,0,11.129,4.992,11.129,11.129v66.785h0
			C267.128,306.659,262.136,311.651,255.999,311.651z"/>
	</g>
</g>
<g>
</g>
<g>
</g>
<g>
</g>
<g>
</g>
<g>
</g>
<g>
</g>
<g>
</g>
<g>
</g>
<g>
</g>
<g>
</g>
<g>
</g>
<g>
</g>
<g>
</g>
<g>
</g>
<g>
</g>
</svg>
