<?xml version="1.0" encoding="iso-8859-1"?>
<!-- Generator: Adobe Illustrator 19.0.0, SVG Export Plug-In . SVG Version: 6.00 Build 0)  -->
<svg version="1.1" id="Layer_1" xmlns="http://www.w3.org/2000/svg" xmlns:xlink="http://www.w3.org/1999/xlink" x="0px" y="0px"
	 viewBox="0 0 512 512" style="enable-background:new 0 0 512 512;" xml:space="preserve">
<path style="fill:#fff;" d="M171.181,340.819c-52.5-52.5-118.497,43.543-118.497,43.543l24.597-7.532l-53.691,63.3l35.351-9.502
	L0,511.999l81.371-58.94l-9.502,35.35l63.299-53.691l-7.532,24.597C127.637,459.316,223.681,393.319,171.181,340.819z"/>
<path style="fill:#fff;" d="M171.181,340.819L0,511.999l81.371-58.94l-9.502,35.35l63.299-53.691l-7.532,24.597
	C127.637,459.316,223.681,393.319,171.181,340.819z"/>
<polygon style="fill:#fff;" points="183.216,222.837 53.806,201.025 121.794,133.038 251.204,154.849 "/>
<polygon style="fill:#fff;" points="289.163,328.785 310.975,458.195 378.963,390.207 357.151,260.798 "/>
<path style="fill:#fff;" d="M465.429,159.887C508.154,86.257,512,0.005,512,0.002c0,0-86.254,3.843-159.885,46.57
	c-16.993,9.862-33.312,21.791-47.746,36.225c0,0-135.974,135.974-160.266,160.266c-24.293,24.293-24.9,68.627,15.655,109.182
	c40.555,40.555,84.888,39.947,109.182,15.655c24.292-24.292,160.266-160.266,160.266-160.266
	C443.638,193.199,455.569,176.88,465.429,159.887z"/>
<path style="fill:#fff;" d="M465.429,159.887C508.154,86.257,512,0.005,512,0.002L408.772,103.23L206.521,305.481l-46.763,46.763
	c40.555,40.555,84.888,39.947,109.182,15.655c24.292-24.292,160.266-160.266,160.266-160.266
	C443.638,193.199,455.569,176.88,465.429,159.887z"/>
<path style="fill:#fff;" d="M512,0.002c0,0-86.254,3.843-159.885,46.57l56.657,56.657l56.657,56.657
	C508.154,86.257,512,0.005,512,0.002z"/>
<path style="fill:#fff;" d="M206.52,305.481l-62.418-62.418c-24.293,24.293-24.9,68.627,15.655,109.182
	s84.888,39.947,109.182,15.655L206.52,305.481z"/>
<path style="fill:#fff;" d="M268.938,367.899l-62.418-62.418l-46.763,46.763C200.311,392.799,244.646,392.191,268.938,367.899z"
	/>
<circle style="fill:#b20ecf46;" cx="344.932" cy="167.068" r="40.764"/>
<polygon style="fill:#b20ecf46;" points="273.048,238.951 273.048,238.951 167.215,314.433 91.733,420.267 91.731,420.268 
	197.566,344.786 "/>
<g>
	<polygon style="fill:#b20ecf46;" points="197.566,344.786 273.048,238.951 273.048,238.951 91.733,420.267 91.731,420.268 	"/>
	<path style="fill:#fff;" d="M512,0.001L408.772,103.229l56.657,56.657C508.154,86.257,512,0.005,512,0.001z"/>
</g>
<path style="fill:#b20ecf46;" d="M373.756,195.894c15.919-15.919,15.919-41.729,0-57.649l-57.649,57.649
	C332.025,211.814,357.836,211.814,373.756,195.894z"/>
<g>
</g>
<g>
</g>
<g>
</g>
<g>
</g>
<g>
</g>
<g>
</g>
<g>
</g>
<g>
</g>
<g>
</g>
<g>
</g>
<g>
</g>
<g>
</g>
<g>
</g>
<g>
</g>
<g>
</g>
</svg>
